<?xml version="1.0" standalone="no"?>
<!DOCTYPE svg PUBLIC "-//W3C//DTD SVG 20010904//EN"
 "http://www.w3.org/TR/2001/REC-SVG-20010904/DTD/svg10.dtd">
<svg version="1.0" xmlns="http://www.w3.org/2000/svg"
 width="723.000000pt" height="483.000000pt" viewBox="0 0 723.000000 483.000000"
 preserveAspectRatio="xMidYMid meet">

<g transform="translate(0.000000,483.000000) scale(0.100000,-0.100000)"
fill="#000000" stroke="none">
<path d="M0 2415 l0 -2415 3615 0 3615 0 0 2415 0 2415 -3615 0 -3615 0 0
-2415z m4210 485 l0 -590 -590 0 -590 0 0 590 0 590 590 0 590 0 0 -590z
m-376 -763 c11 -18 0 -47 -21 -54 -12 -4 -43 23 -43 37 0 14 31 41 43 37 6 -2
15 -11 21 -20z m-1946 -60 c3 -61 -11 -72 -21 -18 -9 43 -50 61 -142 61 l-75
0 0 -100 0 -100 35 0 c44 0 80 17 93 44 8 16 11 0 11 -69 -1 -87 -1 -89 -15
-57 -15 35 -47 52 -95 52 l-29 0 0 -87 c0 -114 7 -123 107 -123 88 0 106 8
132 58 l20 37 1 -62 0 -63 -195 0 c-123 0 -195 4 -195 10 0 6 9 10 19 10 47 0
51 19 51 229 0 204 -3 221 -42 221 -10 0 -18 5 -18 10 0 7 61 10 178 8 l177
-3 3 -58z m2587 -130 c94 -237 109 -265 140 -273 54 -13 20 -24 -75 -24 -97 0
-131 11 -70 24 36 7 38 25 11 101 l-18 50 -91 3 -91 3 -21 -67 c-21 -68 -16
-94 16 -94 8 0 14 -4 14 -10 0 -6 -30 -10 -70 -10 -38 0 -70 3 -70 8 0 4 13
14 29 23 24 14 41 49 116 238 48 122 91 221 97 219 5 -2 42 -88 83 -191z m555
131 l0 -63 -20 43 c-23 52 -47 62 -146 62 l-74 0 0 -100 0 -100 41 0 c49 0 77
14 89 43 6 15 8 -7 8 -68 0 -49 -3 -80 -5 -69 -6 34 -38 56 -88 61 l-45 6 0
-87 c0 -115 10 -126 116 -126 70 0 78 2 105 29 16 16 29 37 29 45 0 9 5 16 11
16 8 0 9 -11 5 -31 -3 -17 -6 -44 -6 -60 l0 -29 -190 0 c-104 0 -190 4 -190 8
0 4 13 12 28 18 37 14 42 39 42 218 0 190 -5 215 -41 223 -72 14 -14 23 151
23 l180 0 0 -62z m280 52 c0 -5 -8 -10 -18 -10 -34 0 -42 -21 -42 -117 l0 -93
130 0 130 0 0 93 c0 96 -8 117 -42 117 -10 0 -18 5 -18 10 0 6 37 10 90 10 53
0 90 -4 90 -10 0 -5 -8 -10 -18 -10 -39 0 -42 -17 -42 -221 0 -210 4 -229 51
-229 10 0 19 -4 19 -10 0 -6 -40 -10 -100 -10 -102 0 -125 9 -67 25 l32 10 3
98 3 97 -131 0 -131 0 3 -97 3 -98 33 -10 c57 -16 34 -25 -68 -25 -60 0 -100
4 -100 10 0 6 9 10 19 10 47 0 51 19 51 229 0 204 -3 221 -42 221 -10 0 -18 5
-18 10 0 6 37 10 90 10 53 0 90 -4 90 -10z m-1234 -150 c32 0 44 -4 44 -15 0
-11 -12 -15 -45 -15 l-45 0 0 -124 c0 -100 3 -128 16 -140 19 -20 34 -20 62 0
20 13 22 13 22 0 0 -38 -96 -50 -130 -16 -18 18 -20 33 -20 150 0 123 -1 130
-20 130 -30 0 -24 23 10 43 16 10 36 28 42 40 12 21 13 20 16 -15 3 -38 4 -38
48 -38z m-224 -297 c6 -7 19 -13 29 -13 11 0 19 -4 19 -10 0 -6 -37 -10 -90
-10 -53 0 -90 4 -90 10 0 6 8 10 18 10 36 0 42 20 42 142 l0 119 -32 14 c-36
15 -32 19 42 32 l45 9 3 -145 c1 -86 7 -150 14 -158z m-1782 272 c0 -14 4 -25
10 -25 5 0 26 11 46 25 54 37 125 35 164 -4 26 -25 31 -27 42 -13 20 23 73 42
118 42 33 0 48 -6 71 -29 28 -29 29 -32 29 -136 0 -108 9 -145 35 -145 8 0 15
-4 15 -10 0 -6 -33 -10 -80 -10 -47 0 -80 4 -80 10 0 6 9 10 20 10 30 0 40 31
40 123 0 103 -12 141 -50 157 -35 14 -66 6 -102 -28 -27 -25 -28 -29 -28 -134
0 -106 0 -108 25 -114 50 -12 23 -24 -55 -24 -81 0 -98 7 -57 25 20 9 22 18
25 100 4 117 -3 151 -34 172 -21 13 -31 14 -64 4 -21 -6 -48 -23 -60 -38 -18
-24 -20 -38 -18 -127 3 -94 5 -102 26 -111 40 -18 23 -25 -58 -25 -47 0 -80 4
-80 10 0 6 9 10 20 10 30 0 40 31 40 129 0 104 -11 141 -40 141 -30 0 -24 19
8 26 15 3 32 7 37 9 25 9 35 3 35 -20z m680 -1 l0 -26 31 26 c60 51 160 27
204 -49 49 -82 22 -195 -55 -236 -45 -25 -107 -24 -147 1 l-33 20 0 -74 c0
-79 13 -106 51 -106 10 0 19 -4 19 -10 0 -6 -37 -10 -90 -10 -86 0 -117 11
-66 24 32 8 36 27 36 211 0 184 -4 203 -36 211 -13 3 -24 10 -24 14 0 6 52 21
103 29 4 0 7 -11 7 -25z m580 11 c24 -29 4 -46 -51 -43 -50 3 -53 2 -73 -32
-16 -28 -21 -52 -21 -120 0 -79 2 -86 23 -95 40 -18 23 -25 -58 -25 -47 0 -80
4 -80 10 0 6 9 10 20 10 30 0 40 31 40 130 0 99 -10 130 -40 130 -35 0 -21 19
21 30 53 15 69 8 69 -30 0 -37 12 -39 30 -4 25 47 95 69 120 39z m301 -12 c20
-20 42 -87 31 -97 -3 -4 -55 -6 -115 -6 l-109 0 4 -56 c4 -46 10 -61 36 -87
40 -39 95 -43 141 -9 32 24 52 15 23 -11 -41 -37 -130 -49 -180 -23 -62 32
-100 112 -87 179 10 47 49 101 86 121 47 23 142 17 170 -11z"/>
<path d="M3060 2905 l0 -565 95 0 95 0 0 199 0 198 60 37 60 37 0 59 0 58 115
107 114 107 3 110 3 109 128 -147 127 -148 0 -130 0 -131 60 -35 60 -35 0
-197 0 -198 100 0 100 0 0 565 0 565 -560 0 -560 0 0 -565z"/>
<path d="M3630 2806 l0 -466 45 0 45 0 0 275 c0 151 3 275 6 275 3 0 18 -8 32
-19 15 -10 37 -23 50 -30 l22 -12 0 113 0 113 -91 105 c-51 58 -96 107 -100
108 -5 2 -9 -206 -9 -462z"/>
<path d="M3493 3001 c-88 -84 -93 -91 -93 -130 l0 -42 52 36 c29 19 56 35 60
35 5 0 8 -126 8 -280 l0 -280 40 0 40 0 0 375 c0 206 -3 375 -7 375 -5 -1 -50
-41 -100 -89z"/>
<path d="M3433 2817 l-33 -22 0 -227 0 -228 45 0 45 0 0 250 c0 273 2 267 -57
227z"/>
<path d="M3750 2591 l0 -251 40 0 40 0 0 224 0 225 -27 19 c-16 10 -34 22 -40
26 -10 6 -13 -46 -13 -243z"/>
<path d="M3318 2743 l-38 -26 0 -188 0 -189 45 0 45 0 0 215 c0 118 -3 215 -7
214 -5 0 -25 -12 -45 -26z"/>
<path d="M3860 2550 l0 -210 45 0 45 0 0 188 0 187 -35 23 c-19 12 -39 22 -45
22 -6 0 -10 -75 -10 -210z"/>
<path d="M4332 1954 c-18 -48 -31 -88 -29 -91 3 -2 36 -3 74 -1 l70 3 -32 84
c-17 47 -36 86 -41 88 -5 2 -24 -36 -42 -83z"/>
<path d="M2805 1946 c-41 -18 -55 -53 -55 -136 0 -59 4 -73 25 -98 33 -39 74
-48 115 -27 82 42 79 220 -5 259 -39 19 -41 19 -80 2z"/>
<path d="M3493 1950 c-12 -5 -29 -23 -38 -40 l-16 -31 83 3 c77 3 83 5 80 23
-2 11 -9 26 -15 32 -17 17 -68 24 -94 13z"/>
</g>
</svg>
